<?xml version="1.0" standalone="no"?>
<!DOCTYPE svg PUBLIC "-//W3C//DTD SVG 20010904//EN"
 "http://www.w3.org/TR/2001/REC-SVG-20010904/DTD/svg10.dtd">
<svg version="1.0" xmlns="http://www.w3.org/2000/svg"
 width="128.000000pt" height="128.000000pt" viewBox="0 0 128.000000 128.000000"
 preserveAspectRatio="xMidYMid meet">
<metadata>
Created by potrace 1.11, written by Peter Selinger 2001-2013
</metadata>
<g transform="translate(0.000000,128.000000) scale(0.100000,-0.100000)"
fill="#000000" stroke="none">
<path d="M362 1078 c-7 -7 -12 -28 -12 -48 l0 -35 -108 -1 c-119 -1 -152 -11
-186 -57 -20 -28 -21 -38 -21 -425 l0 -397 23 -30 c44 -55 40 -55 596 -52 550
2 529 0 571 55 19 26 20 45 23 418 l3 390 -24 35 c-35 52 -66 62 -189 63
l-108 1 0 36 c0 40 -19 63 -43 53 -19 -7 -28 -31 -23 -61 3 -12 -1 -23 -7 -25
-7 -2 -108 -4 -226 -4 l-214 1 -3 39 c-3 48 -27 69 -52 44z m820 -455 c2 -10
3 -123 3 -251 -1 -226 -2 -233 -23 -255 l-22 -22 -500 0 -500 0 -22 22 c-21
22 -22 28 -22 273 l-1 250 541 0 c508 0 542 -1 546 -17z"/>
<path d="M343 488 c-89 -87 -97 -99 -79 -124 13 -17 18 -15 72 40 l59 59 5
-49 c7 -66 26 -67 85 -5 27 28 52 48 56 45 5 -3 7 -18 5 -34 -4 -37 15 -66 38
-57 13 5 16 22 16 90 0 120 -11 126 -90 51 l-60 -57 0 50 c0 78 -18 76 -107
-9z"/>
<path d="M695 540 c-41 -16 -58 -46 -53 -95 8 -67 62 -102 123 -79 22 9 45 56
45 93 0 56 -63 101 -115 81z m61 -76 c9 -34 -18 -64 -44 -48 -35 23 -27 74 12
74 19 0 27 -7 32 -26z"/>
<path d="M841 531 c-12 -24 -7 -149 6 -162 23 -23 40 -2 45 56 6 70 29 92 63
59 11 -11 15 -29 12 -55 -5 -50 14 -79 40 -63 17 11 20 31 14 115 -1 9 -13 28
-27 42 -23 23 -34 26 -86 25 -43 -1 -61 -6 -67 -17z"/>
<path d="M261 272 c-5 -10 -6 -24 -1 -32 7 -13 45 -15 247 -15 131 0 243 4
250 8 12 8 12 24 0 44 -5 9 -73 12 -247 13 -220 0 -240 -1 -249 -18z"/>
<path d="M839 274 c-9 -11 -10 -20 -2 -32 8 -13 26 -17 87 -17 89 -1 99 3 94
36 -3 23 -7 24 -85 26 -63 1 -84 -2 -94 -13z"/>
</g>
</svg>
